<?xml version="1.0" encoding="UTF-8"?>
<svg version="1.1" xmlns="http://www.w3.org/2000/svg" width="1127" height="268">
<path d="M0 0 C25.96463511 -0.75462341 45.01367724 4.94449666 64.71484375 22.40625 C77.73103261 34.77652272 85.60498794 51.48253795 86.3359375 69.53125 C86.67992175 91.9668747 83.07836716 111.2481181 67.21533203 127.98754883 C62.89145871 132.3241087 58.24591476 135.86308476 53 139 C52.38125 139.37382812 51.7625 139.74765625 51.125 140.1328125 C38.96498777 146.78937092 26.95383178 148.73836319 13.33422852 148.56762695 C11.72612553 148.56621238 10.11801934 148.56701643 8.50991821 148.56983948 C4.1945366 148.57125909 -0.12013323 148.54210874 -4.43535113 148.50696969 C-8.96362252 148.47546022 -13.49191482 148.47275625 -18.02027893 148.46684265 C-26.57289084 148.45137581 -35.12517864 148.41044554 -43.6776486 148.3600952 C-53.42383518 148.30397729 -63.1700382 148.2766591 -72.91634643 148.25161803 C-92.94441102 148.19952233 -112.97218499 148.11172111 -133 148 C-132.31620457 142.32102815 -130.80202849 138.24099788 -128 133.3125 C-122.74226111 123.69843389 -118.03993133 113.84778895 -113.375 103.9375 C-113.02018555 103.18634918 -112.66537109 102.43519836 -112.29980469 101.6612854 C-107.98828858 92.5290474 -103.77953106 83.35818564 -99.72592163 74.10826111 C-97.2600258 68.50044913 -94.5721282 63.04014411 -91.7890625 57.58203125 C-90.08643295 54.21577093 -88.49904332 50.80097949 -86.91650391 47.37695312 C-80.92973018 34.43227408 -80.92973018 34.43227408 -77 29 C-76.34 29 -75.68 29 -75 29 C-73.84375 30.51171875 -73.84375 30.51171875 -72.5 32.6875 C-69.84846195 36.80778217 -67.00173822 40.69615807 -64 44.5625 C-63.57033936 45.12098633 -63.14067871 45.67947266 -62.69799805 46.25488281 C-60.83371373 48.67137646 -58.94975503 51.05990371 -56.98828125 53.3984375 C-56.15876953 54.40777344 -56.15876953 54.40777344 -55.3125 55.4375 C-54.83425781 55.99308594 -54.35601562 56.54867187 -53.86328125 57.12109375 C-52.50887802 60.06891255 -53.17738414 61.88502795 -54 65 C-55.12674589 67.99634156 -56.41863456 70.90212969 -57.75 73.8125 C-58.290802 75.01398682 -58.290802 75.01398682 -58.8425293 76.23974609 C-61.00918906 80.99970706 -63.33591384 85.59441967 -65.97265625 90.11328125 C-68.3500731 94.47941182 -69.84979952 99.17554798 -71 104 C-71.66 104 -72.32 104 -73 104 C-73.495 105.98 -73.495 105.98 -74 108 C-33.95094589 108.17505713 -33.95094589 108.17505713 6.09451294 107.73654175 C7.8091699 107.70411205 9.52392466 107.67646427 11.23873901 107.65383911 C13.60111825 107.620886 15.96232577 107.56921681 18.32421875 107.51171875 C19.62447998 107.48553467 20.92474121 107.45935059 22.2644043 107.43237305 C30.36738637 106.49450093 36.65713459 103.15342832 42 97 C48.02133782 87.17806529 49.67037086 77.8064271 47.234375 66.421875 C44.5140527 57.8777641 40.0552751 51.421034 34.37792969 44.66064453 C32.49126283 42.38688338 30.68836822 40.05201851 28.87939453 37.71630859 C24.08689764 31.53610818 19.13702407 25.50004475 14.09375 19.5234375 C9 13.38432836 9 13.38432836 9 11 C8.34 11 7.68 11 7 11 C5.78125 9.50390625 5.78125 9.50390625 4.5 7.5625 C2.7134637 4.77468153 2.7134637 4.77468153 0 3 C0 2.01 0 1.02 0 0 Z " fill="#BAF34C" transform="translate(176,91)"/>
<path d="M0 0 C2.34937549 0.01309156 4.69877038 0.02303885 7.048172 0.03001404 C13.16574944 0.05645935 19.28212227 0.12497412 25.39923096 0.20294189 C31.66768102 0.27516447 37.93632996 0.3066505 44.20507812 0.34179688 C56.4563376 0.41637227 68.70639479 0.5392671 80.95703125 0.68359375 C80.95703125 13.55359375 80.95703125 26.42359375 80.95703125 39.68359375 C76.49163818 39.70546753 76.49163818 39.70546753 71.93603516 39.7277832 C62.07725676 39.77822165 52.21863478 39.84483311 42.36001015 39.91930866 C36.38536566 39.96395022 30.41078839 40.00322016 24.43603516 40.0300293 C18.66521798 40.05612407 12.89466033 40.09657041 7.12400436 40.14678001 C4.92734389 40.16340696 2.73063858 40.17494712 0.5339241 40.18120766 C-2.55366687 40.19089408 -5.6406001 40.21900795 -8.72802734 40.2512207 C-9.62714844 40.24978561 -10.52626953 40.24835052 -11.45263672 40.24687195 C-19.04067309 40.35812562 -25.89387217 41.75914584 -32.41796875 45.74609375 C-36.7033317 50.54161896 -39.15488395 56.27801376 -39.54296875 62.74609375 C-37.3842089 79.74632761 -21.15031474 95.03443869 -10.578125 107.6171875 C-7.3425879 111.53074162 -4.2159424 115.52322345 -1.09130859 119.52539062 C3.69002876 125.64196449 8.51184444 131.74623739 13.625 137.58984375 C16.95703125 141.39787946 16.95703125 141.39787946 16.95703125 144.68359375 C14.61791992 146.55297852 14.61791992 146.55297852 11.375 148.625 C10.80501785 148.99334457 10.23503571 149.36168915 9.64778137 149.74119568 C7.81956603 150.91949411 5.98237633 152.08288547 4.14453125 153.24609375 C2.91669421 154.03353385 1.68947237 154.8219341 0.46289062 155.61132812 C-1.79291612 157.06148823 -4.05266722 158.50462003 -6.31567383 159.94360352 C-8.23788249 161.16995578 -10.14581635 162.41882548 -12.04296875 163.68359375 C-14.5195425 163.46310579 -15.70188058 162.99884021 -17.53173828 161.30761719 C-17.99177246 160.7252832 -18.45180664 160.14294922 -18.92578125 159.54296875 C-19.44793213 158.89126709 -19.97008301 158.23956543 -20.50805664 157.56811523 C-21.05582764 156.86372314 -21.60359863 156.15933105 -22.16796875 155.43359375 C-23.03119751 154.34703491 -23.03119751 154.34703491 -23.91186523 153.23852539 C-28.17284459 147.85688896 -32.35591987 142.4141918 -36.51953125 136.95703125 C-39.28822981 133.34520799 -42.13153113 129.79475447 -44.98046875 126.24609375 C-45.73529541 125.3034668 -45.73529541 125.3034668 -46.50537109 124.34179688 C-48.49977636 121.85150965 -50.4941548 119.36134592 -52.50195312 116.88183594 C-66.88974286 99.1081066 -78.99918069 81.49907202 -78.04296875 57.62109375 C-76.37453904 42.32422763 -70.62555653 27.93868585 -59.109375 17.32421875 C-41.03378469 2.97308845 -22.53521345 -0.37422606 0 0 Z " fill="#BAF34C" transform="translate(189.04296875,28.31640625)"/>
<path d="M0 0 C5.28 0 10.56 0 16 0 C17.86661956 3.8549189 19.73255003 7.71015834 21.59692383 11.56616211 C22.22773861 12.87037765 22.8589081 14.1744217 23.49047852 15.47827148 C24.41262078 17.38216777 25.33336493 19.28673547 26.25390625 21.19140625 C26.80377197 22.32779541 27.3536377 23.46418457 27.92016602 24.63500977 C30.98682778 31.0710757 33.98510958 37.53952054 37 44 C37.33 29.48 37.66 14.96 38 0 C41.96 0 45.92 0 50 0 C50 21.78 50 43.56 50 66 C44.72 66 39.44 66 34 66 C31.65026538 61.32361768 29.30183202 56.64662504 26.95654297 51.96801758 C26.16007786 50.3800834 25.36289189 48.79251055 24.56494141 47.20532227 C23.41113746 44.90998888 22.2600235 42.61332277 21.109375 40.31640625 C20.58256134 39.27052086 20.58256134 39.27052086 20.04510498 38.20350647 C17.53642087 33.18669548 15.28417049 28.1393836 13 23 C12.67 37.19 12.34 51.38 12 66 C8.04 66 4.08 66 0 66 C0 44.22 0 22.44 0 0 Z " fill="#CED50D" transform="translate(524,68)"/>
<path d="M0 0 C36.93478261 0 36.93478261 0 42.9375 5.875 C47.54140838 12.85061875 48.22477205 19.9429455 46.5703125 28.125 C44.83029859 32.93689031 41.18607367 36.24626961 37 39 C36.34 39 35.68 39 35 39 C35.45439453 39.78238037 35.90878906 40.56476074 36.37695312 41.37084961 C38.05592456 44.2640618 39.7329654 47.15837463 41.40869141 50.0534668 C42.13545409 51.3081486 42.86299177 52.56238181 43.59130859 53.81616211 C44.63581369 55.61455829 45.67755456 57.41452991 46.71875 59.21484375 C47.34716797 60.29886475 47.97558594 61.38288574 48.62304688 62.49975586 C50 65 50 65 50 66 C44.52475034 66.58524046 39.4605607 66.84676687 34 66 C30.6947228 63.29235595 29.60982598 59.88478964 28 56 C26.60388946 53.46298192 25.10954967 50.98604181 23.625 48.5 C20 42.32871409 20 42.32871409 20 40 C17.69 40 15.38 40 13 40 C13 48.58 13 57.16 13 66 C8.71 66 4.42 66 0 66 C0 44.22 0 22.44 0 0 Z M13 13 C13 17.95 13 22.9 13 28 C15.371875 28.061875 17.74375 28.12375 20.1875 28.1875 C20.92508545 28.21481201 21.6626709 28.24212402 22.42260742 28.27026367 C26.8131499 28.32540485 29.58218994 27.79463793 33 25 C34.25411568 21.63825863 34.25411568 21.63825863 34 18 C32.65301948 15.1335683 32.65301948 15.1335683 30 13 C27.05916655 12.39085668 24.237032 12.5265074 21.25 12.6875 C20.06083984 12.72133789 20.06083984 12.72133789 18.84765625 12.75585938 C16.8976238 12.81459529 14.94856688 12.90427346 13 13 Z " fill="#CED50D" transform="translate(393,68)"/>
<path d="M0 0 C34.82857143 0 34.82857143 0 43.25 8.1875 C48.23921031 16.20587372 48.46660515 24.24788011 48.375 33.5 C48.38660156 34.67175781 48.39820313 35.84351563 48.41015625 37.05078125 C48.38297875 45.12249833 47.56062748 51.88470583 43.25 58.8125 C31.37074445 70.36177623 16.36094327 66 0 66 C0 44.22 0 22.44 0 0 Z M13 13 C13 26.53 13 40.06 13 54 C23.19296983 54.68957553 23.19296983 54.68957553 31 51 C34.12204403 47.69601213 34.37559663 45.32521741 34.36328125 40.84375 C34.36263672 39.65652344 34.36199219 38.46929687 34.36132812 37.24609375 C34.34521484 36.00988281 34.32910156 34.77367187 34.3125 33.5 C34.31572266 32.26378906 34.31894531 31.02757812 34.32226562 29.75390625 C34.54916765 22.54122354 34.54916765 22.54122354 32 16 C25.86540037 11.35760028 21.49343829 13 13 13 Z " fill="#CED50D" transform="translate(735,68)"/>
<path d="M0 0 C5.24160563 3.02203321 9.47082589 7.1168639 11.14453125 13.0703125 C11.4375 15 11.4375 15 11.5625 18 C-1.46141789 18.79306672 -1.46141789 18.79306672 -5.4375 15.5625 C-6.0975 14.716875 -6.7575 13.87125 -7.4375 13 C-11.23694684 11.70657129 -12.90476177 11.80534565 -16.6875 13.1875 C-19.62177251 15.12145234 -20.23483539 15.81347337 -21.4375 19 C-21.91464021 23.30034495 -21.85381493 27.61339137 -21.875 31.9375 C-21.90787109 33.11763672 -21.94074219 34.29777344 -21.97460938 35.51367188 C-22.27340487 42.44491637 -22.27340487 42.44491637 -19.09765625 48.2578125 C-16.02632997 50.26928316 -14.10614802 50.92356983 -10.4375 51 C-7.40363324 50.22389455 -5.86119895 49.43883105 -3.6875 47.1875 C-2.31084238 44.77834917 -1.8174035 42.73530521 -1.4375 40 C-4.4075 40 -7.3775 40 -10.4375 40 C-10.4375 35.71 -10.4375 31.42 -10.4375 27 C-2.8475 27 4.7425 27 12.5625 27 C13.23056064 50.71615264 13.23056064 50.71615264 6.7265625 58.078125 C0.10044914 64.32342725 -6.23104283 65.48185908 -15.1796875 65.30859375 C-21.77913163 64.68346655 -26.45570232 62.43983995 -30.875 57.5 C-37.00327746 49.81782883 -36.61922521 41.62928254 -36.625 32.1875 C-36.63724609 31.14529297 -36.64949219 30.10308594 -36.66210938 29.02929688 C-36.67889635 20.11541525 -36.27118286 12.13005682 -30.4375 5 C-22.13649769 -2.94008917 -10.58352025 -4.75537899 0 0 Z " fill="#CED50D" transform="translate(865.4375,70)"/>
<path d="M0 0 C4.29 0 8.58 0 13 0 C13.33 9.57 13.66 19.14 14 29 C15.1859375 26.9065625 16.371875 24.813125 17.59375 22.65625 C18.79486783 20.63197542 20.01557073 18.62085306 21.23876953 16.60986328 C22.07214391 15.21574377 22.88488669 13.80905884 23.67529297 12.39013672 C30.11116543 0.88652066 30.11116543 0.88652066 35.03027344 -0.62304688 C39.77425675 -1.23476549 44.30046548 -0.76517686 49 0 C48.37964421 3.34109924 47.16843223 5.46120955 45.1640625 8.1875 C44.59429687 8.96867187 44.02453125 9.74984375 43.4375 10.5546875 C42.839375 11.36164063 42.24125 12.16859375 41.625 13 C41.03460938 13.80695313 40.44421875 14.61390625 39.8359375 15.4453125 C35.40379817 21.49458375 35.40379817 21.49458375 33.30419922 24.12255859 C31.78291598 25.92384352 31.78291598 25.92384352 32.03125 28.2265625 C33.42001638 32.20246624 35.41371949 35.72575609 37.5 39.375 C37.9419873 40.16068359 38.38397461 40.94636719 38.83935547 41.75585938 C42.20879804 47.71026056 45.69866604 53.59079499 49.30664062 59.40380859 C52 63.78968282 52 63.78968282 52 66 C46.72 66 41.44 66 36 66 C31.38 57.75 26.76 49.5 22 41 C14.17614713 49.6699049 14.17614713 49.6699049 13 59.125 C12.979375 60.42695313 12.95875 61.72890625 12.9375 63.0703125 C12.958125 64.03710938 12.97875 65.00390625 13 66 C8.71 66 4.42 66 0 66 C0 44.22 0 22.44 0 0 Z " fill="#CED50D" transform="translate(459,68)"/>
<path d="M0 0 C14.52 0 29.04 0 44 0 C44 4.29 44 8.58 44 13 C33.77 13 23.54 13 13 13 C13 17.62 13 22.24 13 27 C21.58 27 30.16 27 39 27 C39 31.29 39 35.58 39 40 C30.42 40 21.84 40 13 40 C13 44.62 13 49.24 13 54 C23.23 54 33.46 54 44 54 C44 57.96 44 61.92 44 66 C29.48 66 14.96 66 0 66 C0 44.22 0 22.44 0 0 Z " fill="#CED50D" transform="translate(594,68)"/>
<path d="M0 0 C2.97 0 5.94 0 9 0 C14.46206168 13.49609212 19.73433676 27.05513064 24.86669922 40.67993164 C26.02425371 43.7518648 27.18578865 46.82227399 28.34765625 49.89257812 C29.08616856 51.84887112 29.82445881 53.80524797 30.5625 55.76171875 C30.90925781 56.67813644 31.25601562 57.59455414 31.61328125 58.53874207 C31.9278125 59.37504654 32.24234375 60.21135101 32.56640625 61.07299805 C32.84427979 61.8098735 33.12215332 62.54674896 33.40844727 63.30595398 C34 65 34 65 34 66 C29.38 66 24.76 66 20 66 C18.68 63.03 17.36 60.06 16 57 C8.41 56.67 0.82 56.34 -7 56 C-7.99 59.3 -8.98 62.6 -10 66 C-14.62 66 -19.24 66 -24 66 C-23.32683115 61.96098693 -22.84370269 59.17018236 -21.42114258 55.53369141 C-21.10023148 54.70487457 -20.77932037 53.87605774 -20.44868469 53.02212524 C-20.10081406 52.14083954 -19.75294342 51.25955383 -19.39453125 50.3515625 C-18.85199959 48.95627823 -18.85199959 48.95627823 -18.29850769 47.5328064 C-17.14191313 44.56139501 -15.97749772 41.59312555 -14.8125 38.625 C-13.67034293 35.70047739 -12.52983019 32.77531794 -11.38961792 29.85003662 C-10.64704509 27.94503777 -9.90382724 26.04029022 -9.15994263 24.13580322 C-6.03240751 16.11790057 -2.99163767 8.0694819 0 0 Z M4 24 C2.99619084 26.79035046 1.9968055 29.58214855 1 32.375 C0.71382812 33.1690625 0.42765625 33.963125 0.1328125 34.78125 C-0.13789062 35.54179688 -0.40859375 36.30234375 -0.6875 37.0859375 C-0.93886719 37.7876709 -1.19023438 38.4894043 -1.44921875 39.21240234 C-2.0981509 41.00680111 -2.0981509 41.00680111 -2 43 C2.62 43 7.24 43 12 43 C11.05067347 40.01768174 10.09108394 37.03938656 9.125 34.0625 C8.85558594 33.21236328 8.58617187 32.36222656 8.30859375 31.48632812 C8.04433594 30.67744141 7.78007813 29.86855469 7.5078125 29.03515625 C7.14647217 27.91185913 7.14647217 27.91185913 6.77783203 26.76586914 C6.13741697 24.80276587 6.13741697 24.80276587 4 24 Z " fill="#CED50D" transform="translate(995,68)"/>
<path d="M0 0 C2.97 0 5.94 0 9 0 C14.46206168 13.49609212 19.73433676 27.05513064 24.86669922 40.67993164 C26.02425371 43.7518648 27.18578865 46.82227399 28.34765625 49.89257812 C29.08616856 51.84887112 29.82445881 53.80524797 30.5625 55.76171875 C30.90925781 56.67813644 31.25601563 57.59455414 31.61328125 58.53874207 C31.9278125 59.37504654 32.24234375 60.21135101 32.56640625 61.07299805 C32.84427979 61.8098735 33.12215332 62.54674896 33.40844727 63.30595398 C34 65 34 65 34 66 C29.38 66 24.76 66 20 66 C18.68 63.03 17.36 60.06 16 57 C8.41 56.67 0.82 56.34 -7 56 C-7.99 59.3 -8.98 62.6 -10 66 C-14.62 66 -19.24 66 -24 66 C-23.32683115 61.96098693 -22.84370269 59.17018236 -21.42114258 55.53369141 C-21.10023148 54.70487457 -20.77932037 53.87605774 -20.44868469 53.02212524 C-20.10081406 52.14083954 -19.75294342 51.25955383 -19.39453125 50.3515625 C-18.85199959 48.95627823 -18.85199959 48.95627823 -18.29850769 47.5328064 C-17.14191313 44.56139501 -15.97749772 41.59312555 -14.8125 38.625 C-13.67034293 35.70047739 -12.52983019 32.77531794 -11.38961792 29.85003662 C-10.64704509 27.94503777 -9.90382724 26.04029022 -9.15994263 24.13580322 C-6.03240751 16.11790057 -2.99163767 8.0694819 0 0 Z M4 24 C2.99619084 26.79035046 1.9968055 29.58214855 1 32.375 C0.71382813 33.1690625 0.42765625 33.963125 0.1328125 34.78125 C-0.13789063 35.54179688 -0.40859375 36.30234375 -0.6875 37.0859375 C-0.93886719 37.7876709 -1.19023437 38.4894043 -1.44921875 39.21240234 C-2.0981509 41.00680111 -2.0981509 41.00680111 -2 43 C2.62 43 7.24 43 12 43 C11.05067347 40.01768174 10.09108394 37.03938656 9.125 34.0625 C8.85558594 33.21236328 8.58617187 32.36222656 8.30859375 31.48632812 C8.04433594 30.67744141 7.78007812 29.86855469 7.5078125 29.03515625 C7.14647217 27.91185913 7.14647217 27.91185913 6.77783203 26.76586914 C6.13741697 24.80276587 6.13741697 24.80276587 4 24 Z " fill="#CED50D" transform="translate(347,68)"/>
<path d="M0 0 C15.84 0 31.68 0 48 0 C48 4.29 48 8.58 48 13 C42.39 13 36.78 13 31 13 C31 30.49 31 47.98 31 66 C26.71 66 22.42 66 18 66 C18 48.51 18 31.02 18 13 C12.06 13 6.12 13 0 13 C0 8.71 0 4.42 0 0 Z " fill="#CED50D" transform="translate(920,68)"/>
<path d="M0 0 C15.84 0 31.68 0 48 0 C48 4.29 48 8.58 48 13 C42.39 13 36.78 13 31 13 C31 30.49 31 47.98 31 66 C26.71 66 22.42 66 18 66 C18 48.51 18 31.02 18 13 C12.06 13 6.12 13 0 13 C0 8.71 0 4.42 0 0 Z " fill="#CED50D" transform="translate(647,68)"/>
<path d="M0 0 C4.29 0 8.58 0 13 0 C13 17.82 13 35.64 13 54 C23.23 54 33.46 54 44 54 C44 57.96 44 61.92 44 66 C29.48 66 14.96 66 0 66 C0 44.22 0 22.44 0 0 Z " fill="#CED50D" transform="translate(1041,68)"/>
<path d="M0 0 C15.51 0 31.02 0 47 0 C47 1.98 47 3.96 47 6 C44.03 6 41.06 6 38 6 C38 14.91 38 23.82 38 33 C35.03 33 32.06 33 29 33 C29 24.09 29 15.18 29 6 C22.07 6 15.14 6 8 6 C8 8.31 8 10.62 8 13 C11.63 13 15.26 13 19 13 C19 14.98 19 16.96 19 19 C15.37 19 11.74 19 8 19 C8 21.64 8 24.28 8 27 C11.96 27 15.92 27 20 27 C20 28.98 20 30.96 20 33 C13.4 33 6.8 33 0 33 C0 22.11 0 11.22 0 0 Z " fill="#E0B054" transform="translate(780,170)"/>
<path d="M0 0 C4.29 0 8.58 0 13 0 C13 21.78 13 43.56 13 66 C8.71 66 4.42 66 0 66 C0 44.22 0 22.44 0 0 Z " fill="#CED50D" transform="translate(894,68)"/>
<path d="M0 0 C4.29 0 8.58 0 13 0 C13 21.78 13 43.56 13 66 C8.71 66 4.42 66 0 66 C0 44.22 0 22.44 0 0 Z " fill="#CED50D" transform="translate(799,68)"/>
<path d="M0 0 C13.2 0 26.4 0 40 0 C40 1.98 40 3.96 40 6 C39.01 6 38.02 6 37 6 C37 12.93 37 19.86 37 27 C37.99 27 38.98 27 40 27 C40 28.98 40 30.96 40 33 C35.71 33 31.42 33 27 33 C27 31.02 27 29.04 27 27 C27.66 27 28.32 27 29 27 C29 20.07 29 13.14 29 6 C25.37 6 21.74 6 18 6 C18 14.91 18 23.82 18 33 C15.03 33 12.06 33 9 33 C9 24.09 9 15.18 9 6 C6.03 6 3.06 6 0 6 C0 4.02 0 2.04 0 0 Z " fill="#E0B054" transform="translate(951,170)"/>
<path d="M0 0 C9 0 9 0 11.234375 1.90625 C11.73453125 2.7621875 12.2346875 3.618125 12.75 4.5 C13.30300781 5.40492188 13.85601563 6.30984375 14.42578125 7.2421875 C14.94527344 8.15226563 15.46476562 9.06234375 16 10 C16.97460076 11.54455716 17.9532415 13.08657916 18.9375 14.625 C19.9584375 16.295625 19.9584375 16.295625 21 18 C21.33 12.06 21.66 6.12 22 0 C24.64 0 27.28 0 30 0 C30 10.89 30 21.78 30 33 C21 33 21 33 18.87670898 31.25585938 C18.42110596 30.45986328 17.96550293 29.66386719 17.49609375 28.84375 C16.98369141 27.98652344 16.47128906 27.12929687 15.94335938 26.24609375 C15.44642578 25.33988281 14.94949219 24.43367188 14.4375 23.5 C13.90576172 22.59378906 13.37402344 21.68757813 12.82617188 20.75390625 C11.52096059 18.51976081 10.25640426 16.26195284 9 14 C8.67 20.27 8.34 26.54 8 33 C5.36 33 2.72 33 0 33 C0 22.11 0 11.22 0 0 Z " fill="#E0B054" transform="translate(1028,170)"/>
<path d="M0 0 C9 0 9 0 11.234375 1.90625 C11.73453125 2.7621875 12.2346875 3.618125 12.75 4.5 C13.30300781 5.40492188 13.85601563 6.30984375 14.42578125 7.2421875 C14.94527344 8.15226563 15.46476563 9.06234375 16 10 C16.97460076 11.54455716 17.9532415 13.08657916 18.9375 14.625 C19.9584375 16.295625 19.9584375 16.295625 21 18 C21.33 12.06 21.66 6.12 22 0 C24.64 0 27.28 0 30 0 C30 10.89 30 21.78 30 33 C21 33 21 33 18.87670898 31.25585938 C18.42110596 30.45986328 17.96550293 29.66386719 17.49609375 28.84375 C16.98369141 27.98652344 16.47128906 27.12929687 15.94335938 26.24609375 C15.44642578 25.33988281 14.94949219 24.43367188 14.4375 23.5 C13.90576172 22.59378906 13.37402344 21.68757813 12.82617188 20.75390625 C11.52096059 18.51976081 10.25640426 16.26195284 9 14 C8.67 20.27 8.34 26.54 8 33 C5.36 33 2.72 33 0 33 C0 22.11 0 11.22 0 0 Z " fill="#E0B054" transform="translate(744,170)"/>
<path d="M0 0 C9 0 9 0 11.234375 1.90625 C11.73453125 2.7621875 12.2346875 3.618125 12.75 4.5 C13.30300781 5.40492188 13.85601563 6.30984375 14.42578125 7.2421875 C14.94527344 8.15226563 15.46476563 9.06234375 16 10 C16.97460076 11.54455716 17.9532415 13.08657916 18.9375 14.625 C19.9584375 16.295625 19.9584375 16.295625 21 18 C21.33 12.06 21.66 6.12 22 0 C24.64 0 27.28 0 30 0 C30 10.89 30 21.78 30 33 C21 33 21 33 18.87670898 31.25585938 C18.42110596 30.45986328 17.96550293 29.66386719 17.49609375 28.84375 C16.98369141 27.98652344 16.47128906 27.12929687 15.94335938 26.24609375 C15.44642578 25.33988281 14.94949219 24.43367188 14.4375 23.5 C13.90576172 22.59378906 13.37402344 21.68757813 12.82617188 20.75390625 C11.52096059 18.51976081 10.25640426 16.26195284 9 14 C8.67 20.27 8.34 26.54 8 33 C5.36 33 2.72 33 0 33 C0 22.11 0 11.22 0 0 Z " fill="#E0B054" transform="translate(631,170)"/>
<path d="M0 0 C3.01125 -0.061875 6.0225 -0.12375 9.125 -0.1875 C10.06230957 -0.21481201 10.99961914 -0.24212402 11.96533203 -0.27026367 C18.27588608 -0.33276437 22.42308201 0.77131417 27.3125 5 C30.1648383 10.07082365 30.59578635 15.60287206 29.59375 21.31640625 C27.96483938 26.42614374 25.37691566 28.99087048 21 32 C18.23434618 32.92188461 16.61716298 33.11785222 13.76953125 33.09765625 C12.68442261 33.09390991 12.68442261 33.09390991 11.57739258 33.09008789 C10.20877075 33.07643188 10.20877075 33.07643188 8.8125 33.0625 C5.904375 33.041875 2.99625 33.02125 0 33 C0 22.11 0 11.22 0 0 Z M8 6 C8 12.93 8 19.86 8 27 C14.14721486 27 15.47020082 26.68704584 20 23 C21.67344323 17.97967031 21.87191216 13.78173355 19.5625 9.0625 C16.36917575 6.11424075 16.36917575 6.11424075 8 6 Z " fill="#E0B054" transform="translate(573,170)"/>
<path d="M0 0 C3.87676464 2.05875295 6.23426408 4.21803251 7.82421875 8.28125 C9.25002444 14.73079293 9.39886064 20.53628982 5.82421875 26.28125 C2.91832034 29.38808819 -0.19973364 32.08135132 -4.53125 32.51953125 C-11.02886749 32.68981364 -15.06550966 32.45290028 -20.17578125 28.28125 C-23.97386743 23.17191978 -24.86952799 18.52497063 -24.17578125 12.28125 C-22.38127641 6.39926191 -20.00716854 3.77629612 -15.17578125 0.28125 C-10.79800812 -1.90763656 -4.57307815 -1.51067573 0 0 Z M-14.17578125 9.28125 C-15.33876098 11.60720946 -15.34178816 13.06848231 -15.36328125 15.65625 C-15.37746094 16.42710937 -15.39164063 17.19796875 -15.40625 17.9921875 C-15.15008946 20.53642609 -14.50872354 22.11167371 -13.17578125 24.28125 C-10.77536562 26.01948201 -9.58304712 26.31104994 -6.61328125 26.09375 C-3.98824821 25.21873899 -2.88646788 24.41960829 -1.17578125 22.28125 C-0.01280152 19.95529054 -0.00977434 18.49401769 0.01171875 15.90625 C0.03298828 14.74996094 0.03298828 14.74996094 0.0546875 13.5703125 C-0.20171668 11.02365402 -0.83214224 9.44810446 -2.17578125 7.28125 C-7.28720983 3.98355414 -9.88413502 5.44135601 -14.17578125 9.28125 Z " fill="#E0B054" transform="translate(1016.17578125,170.71875)"/>
<path d="M0 0 C3.87676464 2.05875295 6.23426408 4.21803251 7.82421875 8.28125 C9.25002444 14.73079293 9.39886064 20.53628982 5.82421875 26.28125 C2.91832034 29.38808819 -0.19973364 32.08135132 -4.53125 32.51953125 C-11.02886749 32.68981364 -15.06550966 32.45290028 -20.17578125 28.28125 C-23.97386743 23.17191978 -24.86952799 18.52497063 -24.17578125 12.28125 C-22.38127641 6.39926191 -20.00716854 3.77629612 -15.17578125 0.28125 C-10.79800812 -1.90763656 -4.57307815 -1.51067573 0 0 Z M-14.17578125 9.28125 C-15.33876098 11.60720946 -15.34178816 13.06848231 -15.36328125 15.65625 C-15.37746094 16.42710937 -15.39164063 17.19796875 -15.40625 17.9921875 C-15.15008946 20.53642609 -14.50872354 22.11167371 -13.17578125 24.28125 C-10.77536562 26.01948201 -9.58304712 26.31104994 -6.61328125 26.09375 C-3.98824821 25.21873899 -2.88646788 24.41960829 -1.17578125 22.28125 C-0.01280152 19.95529054 -0.00977434 18.49401769 0.01171875 15.90625 C0.03298828 14.74996094 0.03298828 14.74996094 0.0546875 13.5703125 C-0.20171668 11.02365402 -0.83214224 9.44810446 -2.17578125 7.28125 C-7.28720983 3.98355414 -9.88413502 5.44135601 -14.17578125 9.28125 Z " fill="#E0B054" transform="translate(888.17578125,170.71875)"/>
<path d="M0 0 C1.87365234 -0.00386719 1.87365234 -0.00386719 3.78515625 -0.0078125 C6.9375 0.125 6.9375 0.125 8.9375 1.125 C8.9375 3.435 8.9375 5.745 8.9375 8.125 C7.72513672 7.96451172 7.72513672 7.96451172 6.48828125 7.80078125 C5.41964844 7.68089844 4.35101563 7.56101563 3.25 7.4375 C2.19425781 7.30988281 1.13851563 7.18226563 0.05078125 7.05078125 C-3.5680454 7.1370519 -5.20569417 7.95794549 -8.0625 10.125 C-9.78808884 13.57617767 -9.41902026 17.34453988 -9.0625 21.125 C-8.19825439 23.72369315 -8.19825439 23.72369315 -6.0625 25.125 C-2.45784252 25.93814911 -2.45784252 25.93814911 0.9375 26.125 C1.2675 24.145 1.5975 22.165 1.9375 20.125 C-0.0425 20.125 -2.0225 20.125 -4.0625 20.125 C-4.0625 18.145 -4.0625 16.165 -4.0625 14.125 C0.8875 14.125 5.8375 14.125 10.9375 14.125 C10.9375 19.735 10.9375 25.345 10.9375 31.125 C4.1149089 33.85403644 -3.1886377 34.41706417 -10.390625 32.5078125 C-14.52747097 30.47536209 -16.64893373 27.36450558 -18.40234375 23.265625 C-20.0192652 18.02258977 -19.63667762 13.85992211 -17.375 8.875 C-13.26311618 1.45319551 -8.10866611 -0.01677077 0 0 Z " fill="#E0B054" transform="translate(413.0625,169.875)"/>
<path d="M0 0 C2.64 0 5.28 0 8 0 C8 4.29 8 8.58 8 13 C12.29 13 16.58 13 21 13 C21 8.71 21 4.42 21 0 C23.64 0 26.28 0 29 0 C29 10.89 29 21.78 29 33 C26.36 33 23.72 33 21 33 C21 28.38 21 23.76 21 19 C16.71 19 12.42 19 8 19 C8 23.62 8 28.24 8 33 C5.36 33 2.72 33 0 33 C0 22.11 0 11.22 0 0 Z " fill="#E0B054" transform="translate(428,170)"/>
<path d="M0 0 C2.64 0 5.28 0 8 0 C8 4.29 8 8.58 8 13 C12.29 13 16.58 13 21 13 C21 8.71 21 4.42 21 0 C23.64 0 26.28 0 29 0 C29 10.89 29 21.78 29 33 C26.36 33 23.72 33 21 33 C21 28.38 21 23.76 21 19 C16.71 19 12.42 19 8 19 C8 23.62 8 28.24 8 33 C5.36 33 2.72 33 0 33 C0 22.11 0 11.22 0 0 Z " fill="#E0B054" transform="translate(348,170)"/>
<path d="M0 0 C2.866875 -0.061875 5.73375 -0.12375 8.6875 -0.1875 C10.02880981 -0.22846802 10.02880981 -0.22846802 11.3972168 -0.27026367 C16.11828676 -0.31950215 19.13697048 -0.02489688 23 3 C24.56941198 4.56941198 24.2449847 6.14134994 24.3125 8.3125 C24.29571103 11.82699145 24.23953821 12.69309167 22 15.5625 C21.34 16.036875 20.68 16.51125 20 17 C21.36667008 20.68868235 23.05429204 23.90885768 25.125 27.25 C28 31.89952153 28 31.89952153 28 33 C24.43287664 33.77514954 21.52780904 34.04394349 18 33 C15.63972853 30.06054752 14.09095061 27.12226725 12.47265625 23.72265625 C11.23868289 20.69956417 11.23868289 20.69956417 8 20 C8 24.29 8 28.58 8 33 C5.36 33 2.72 33 0 33 C0 22.11 0 11.22 0 0 Z M8 5 C8 8.3 8 11.6 8 15 C12.47883696 14.55296014 12.47883696 14.55296014 16 12 C15.67801034 8.90073181 15.67801034 8.90073181 15 6 C12.69 5.67 10.38 5.34 8 5 Z " fill="#E0B054" transform="translate(715,170)"/>
<path d="M0 0 C2.64 0 5.28 0 8 0 C8.01458252 0.68102783 8.02916504 1.36205566 8.04418945 2.0637207 C8.11862696 5.14722215 8.21530083 8.22963567 8.3125 11.3125 C8.33505859 12.38435547 8.35761719 13.45621094 8.38085938 14.56054688 C8.41630859 15.58857422 8.45175781 16.61660156 8.48828125 17.67578125 C8.51446533 18.62364502 8.54064941 19.57150879 8.56762695 20.5480957 C9.06687042 23.3792093 9.66683603 24.35369717 12 26 C15.31818985 25.75794651 15.31818985 25.75794651 18 24 C18.15764405 22.22130274 18.25100677 20.43681524 18.31640625 18.65234375 C18.35830078 17.57275391 18.40019531 16.49316406 18.44335938 15.38085938 C18.48267578 14.24455078 18.52199219 13.10824219 18.5625 11.9375 C18.62727539 10.22723633 18.62727539 10.22723633 18.69335938 8.48242188 C18.79982839 5.65507805 18.90184207 2.82764262 19 0 C21.64 0 24.28 0 27 0 C27.11662261 4.04142215 27.1873935 8.08240865 27.25 12.125 C27.30027344 13.83816406 27.30027344 13.83816406 27.3515625 15.5859375 C27.47673857 26.35107918 27.47673857 26.35107918 23 31 C18.60123188 34.12141623 13.1573735 33.49044859 8 33 C3.67682971 31.28874509 2.06645143 29.09198661 0 25 C-0.34057617 22.13745117 -0.34057617 22.13745117 -0.29296875 19.04296875 C-0.28330078 17.93115234 -0.27363281 16.81933594 -0.26367188 15.67382812 C-0.23853516 14.52333984 -0.21339844 13.37285156 -0.1875 12.1875 C-0.17396484 11.01767578 -0.16042969 9.84785156 -0.14648438 8.64257812 C-0.11120278 5.761248 -0.0619028 2.88086096 0 0 Z " fill="#E0B054" transform="translate(922,170)"/>
<path d="M0 0 C2.866875 -0.061875 5.73375 -0.12375 8.6875 -0.1875 C10.02880981 -0.22846802 10.02880981 -0.22846802 11.3972168 -0.27026367 C16.09264078 -0.31923467 19.2012171 -0.08049451 23 3 C25.29299233 6.64794235 25.25832428 9.93029213 24.6171875 14.06640625 C23.60001197 17.25312706 21.54706149 18.94992612 19 21 C15.57067929 22.71466036 11.78283935 22.05404056 8 22 C8 25.63 8 29.26 8 33 C5.36 33 2.72 33 0 33 C0 22.11 0 11.22 0 0 Z M8 6 C8 9.3 8 12.6 8 16 C11.465 15.505 11.465 15.505 15 15 C15.33 12.69 15.66 10.38 16 8 C12.90754997 5.53774984 12.90754997 5.53774984 8 6 Z " fill="#E0B054" transform="translate(498,170)"/>
<path d="M0 0 C1.16789063 -0.00257813 2.33578125 -0.00515625 3.5390625 -0.0078125 C6.375 0.125 6.375 0.125 7.375 1.125 C7.41592937 3.45797433 7.41741723 5.79205225 7.375 8.125 C6.32699219 7.99931641 6.32699219 7.99931641 5.2578125 7.87109375 C4.34773437 7.76925781 3.43765625 7.66742188 2.5 7.5625 C1.59507812 7.45808594 0.69015625 7.35367188 -0.2421875 7.24609375 C-2.64153057 6.92825148 -2.64153057 6.92825148 -4.625 8.125 C-3.93067148 11.30430502 -3.93067148 11.30430502 -1.19140625 12.5546875 C0.80705098 13.51623389 2.80704977 14.47458307 4.80859375 15.4296875 C7.82032585 17.41917263 8.48406597 18.67465549 9.375 22.125 C9.22351594 25.8363594 8.83696061 27.57362765 6.4375 30.4375 C2.85074949 33.37211405 0.52759757 33.26023433 -4.0625 33.25 C-5.21621094 33.25257813 -6.36992188 33.25515625 -7.55859375 33.2578125 C-10.625 33.125 -10.625 33.125 -13.625 32.125 C-13.625 29.485 -13.625 26.845 -13.625 24.125 C-12.078125 24.6509375 -12.078125 24.6509375 -10.5 25.1875 C-6.6451036 26.12013623 -4.42327774 26.05140921 -0.625 25.125 C-2.00443122 21.70143755 -3.18962021 20.5134036 -6.5625 19.0625 C-9.48610629 17.78922847 -11.65637888 16.6854152 -13.625 14.125 C-14.2478087 11.07828717 -14.13443248 8.18713218 -13.625 5.125 C-9.94142152 0.0442021 -5.94361792 -0.01317875 0 0 Z " fill="#E0B054" transform="translate(853.625,169.875)"/>
<path d="M0 0 C1.16789062 -0.00257813 2.33578125 -0.00515625 3.5390625 -0.0078125 C6.375 0.125 6.375 0.125 7.375 1.125 C7.41592937 3.45797433 7.41741723 5.79205225 7.375 8.125 C6.32699219 7.99931641 6.32699219 7.99931641 5.2578125 7.87109375 C4.34773438 7.76925781 3.43765625 7.66742188 2.5 7.5625 C1.59507812 7.45808594 0.69015625 7.35367188 -0.2421875 7.24609375 C-2.64153057 6.92825148 -2.64153057 6.92825148 -4.625 8.125 C-3.93067148 11.30430502 -3.93067148 11.30430502 -1.19140625 12.5546875 C0.80705098 13.51623389 2.80704977 14.47458307 4.80859375 15.4296875 C7.82032585 17.41917263 8.48406597 18.67465549 9.375 22.125 C9.22351594 25.8363594 8.83696061 27.57362765 6.4375 30.4375 C2.85074949 33.37211405 0.52759757 33.26023433 -4.0625 33.25 C-5.21621094 33.25257813 -6.36992187 33.25515625 -7.55859375 33.2578125 C-10.625 33.125 -10.625 33.125 -13.625 32.125 C-13.625 29.485 -13.625 26.845 -13.625 24.125 C-12.078125 24.6509375 -12.078125 24.6509375 -10.5 25.1875 C-6.6451036 26.12013623 -4.42327774 26.05140921 -0.625 25.125 C-2.00443122 21.70143755 -3.18962021 20.5134036 -6.5625 19.0625 C-9.48610629 17.78922847 -11.65637888 16.6854152 -13.625 14.125 C-14.2478087 11.07828717 -14.13443248 8.18713218 -13.625 5.125 C-9.94142152 0.0442021 -5.94361792 -0.01317875 0 0 Z " fill="#E0B054" transform="translate(486.625,169.875)"/>
<path d="M0 0 C6.6 0 13.2 0 20 0 C20 1.98 20 3.96 20 6 C16.04 6 12.08 6 8 6 C8 8.31 8 10.62 8 13 C11.63 13 15.26 13 19 13 C19 14.98 19 16.96 19 19 C15.37 19 11.74 19 8 19 C8 21.64 8 24.28 8 27 C11.96 27 15.92 27 20 27 C20 28.98 20 30.96 20 33 C13.4 33 6.8 33 0 33 C0 22.11 0 11.22 0 0 Z " fill="#E0B054" transform="translate(692,170)"/>
<path d="M0 0 C6.6 0 13.2 0 20 0 C20 1.98 20 3.96 20 6 C16.04 6 12.08 6 8 6 C8 8.31 8 10.62 8 13 C11.63 13 15.26 13 19 13 C19 14.98 19 16.96 19 19 C15.37 19 11.74 19 8 19 C8 21.64 8 24.28 8 27 C11.96 27 15.92 27 20 27 C20 28.98 20 30.96 20 33 C13.4 33 6.8 33 0 33 C0 22.11 0 11.22 0 0 Z " fill="#E0B054" transform="translate(549,170)"/>
<path d="M0 0 C6.6 0 13.2 0 20 0 C20 1.98 20 3.96 20 6 C16.04 6 12.08 6 8 6 C8 8.31 8 10.62 8 13 C11.63 13 15.26 13 19 13 C19 14.98 19 16.96 19 19 C15.37 19 11.74 19 8 19 C8 21.64 8 24.28 8 27 C11.96 27 15.92 27 20 27 C20 28.98 20 30.96 20 33 C13.4 33 6.8 33 0 33 C0 22.11 0 11.22 0 0 Z " fill="#E0B054" transform="translate(526,170)"/>
<path d="M0 0 C8.91 0 17.82 0 27 0 C27 1.98 27 3.96 27 6 C24.03 6 21.06 6 18 6 C18 14.91 18 23.82 18 33 C15.03 33 12.06 33 9 33 C9 24.09 9 15.18 9 6 C6.03 6 3.06 6 0 6 C0 4.02 0 2.04 0 0 Z " fill="#E0B054" transform="translate(663,170)"/>
<path d="M0 0 C2.64 0 5.28 0 8 0 C8 8.91 8 17.82 8 27 C11.96 27 15.92 27 20 27 C20 28.98 20 30.96 20 33 C13.4 33 6.8 33 0 33 C0 22.11 0 11.22 0 0 Z " fill="#E0B054" transform="translate(900,170)"/>
<path d="M0 0 C4.29 0 8.58 0 13 0 C13 1.98 13 3.96 13 6 C12.01 6 11.02 6 10 6 C10 12.93 10 19.86 10 27 C10.99 27 11.98 27 13 27 C13 28.98 13 30.96 13 33 C8.71 33 4.42 33 0 33 C0 31.02 0 29.04 0 27 C0.66 27 1.32 27 2 27 C2 20.07 2 13.14 2 6 C1.34 6 0.68 6 0 6 C0 4.02 0 2.04 0 0 Z " fill="#E0B054" transform="translate(615,170)"/>
<path d="M0 0 C4.29 0 8.58 0 13 0 C13 1.98 13 3.96 13 6 C12.01 6 11.02 6 10 6 C10 12.93 10 19.86 10 27 C10.99 27 11.98 27 13 27 C13 28.98 13 30.96 13 33 C8.71 33 4.42 33 0 33 C0 31.02 0 29.04 0 27 C0.66 27 1.32 27 2 27 C2 20.07 2 13.14 2 6 C1.34 6 0.68 6 0 6 C0 4.02 0 2.04 0 0 Z " fill="#E0B054" transform="translate(380,170)"/>
<path d="M0 0 C0.99 0.495 0.99 0.495 2 1 C1.01 1.495 1.01 1.495 0 2 C0 1.34 0 0.68 0 0 Z " fill="#A4CA57" transform="translate(136,39)"/>
<path d="" fill="#BBF44C" transform="translate(0,0)"/>
<path d="" fill="#787371" transform="translate(0,0)"/>
</svg>
